<?xml version="1.0" standalone="no"?>
<!DOCTYPE svg PUBLIC "-//W3C//DTD SVG 20010904//EN"
 "http://www.w3.org/TR/2001/REC-SVG-20010904/DTD/svg10.dtd">
<svg version="1.0" xmlns="http://www.w3.org/2000/svg"
 width="860.000000pt" height="1428.000000pt" viewBox="0 0 860.000000 1428.000000"
 preserveAspectRatio="xMidYMid meet">
<metadata>
Created by potrace 1.16, written by Peter Selinger 2001-2019
</metadata>
<g transform="translate(0.000000,1428.000000) scale(0.100000,-0.100000)"
fill="#000000" stroke="none">
<path d="M3760 14264 c-162 -18 -195 -22 -282 -34 -43 -5 -113 -14 -155 -20
-42 -5 -102 -14 -132 -20 -31 -5 -114 -19 -186 -30 -406 -66 -803 -155 -1132
-254 -29 -9 -74 -22 -100 -30 -69 -20 -191 -65 -240 -87 -23 -10 -46 -19 -50
-19 -19 0 -176 -68 -278 -121 -258 -133 -461 -277 -642 -458 -259 -257 -478
-616 -548 -897 -11 -47 -10 -67 15 -200 33 -177 67 -367 86 -484 8 -47 27
-159 44 -250 73 -411 91 -509 100 -572 6 -36 19 -108 29 -160 10 -51 22 -115
25 -143 4 -27 20 -122 36 -210 53 -291 81 -449 91 -515 6 -36 25 -148 44 -250
18 -102 47 -266 65 -365 17 -99 44 -254 60 -345 16 -91 46 -257 65 -370 72
-412 68 -400 132 -426 47 -20 81 -12 318 81 33 13 69 25 80 28 11 3 58 19 105
35 47 16 110 37 140 46 30 8 80 23 110 31 213 61 543 135 700 156 264 35 447
50 640 51 117 1 344 -8 435 -17 22 -2 81 -7 130 -11 109 -8 154 -22 80 -25
-27 -1 -61 -3 -75 -4 -14 -1 -61 -5 -105 -9 -138 -11 -577 -56 -655 -66 -41
-6 -109 -15 -150 -21 -440 -59 -923 -162 -1325 -282 -55 -16 -120 -35 -145
-42 -166 -49 -254 -87 -277 -121 -21 -32 -23 -153 -4 -246 6 -29 13 -75 16
-103 3 -27 9 -72 15 -100 5 -27 16 -99 25 -160 29 -198 46 -308 66 -435 11
-69 27 -165 34 -215 14 -87 24 -145 80 -490 14 -88 34 -209 45 -270 21 -118
53 -307 71 -420 6 -38 24 -137 39 -220 16 -82 31 -170 35 -195 4 -25 29 -164
56 -310 27 -146 59 -317 70 -380 27 -143 245 -1221 259 -1275 5 -22 40 -170
76 -330 99 -428 98 -427 144 -600 23 -88 50 -191 60 -230 10 -38 27 -101 38
-140 11 -38 29 -106 41 -150 13 -44 31 -105 40 -135 10 -30 35 -109 56 -175
142 -451 291 -788 405 -918 66 -76 197 -140 426 -211 120 -37 395 -79 659
-101 326 -28 930 -23 1300 10 28 3 91 7 140 11 50 3 93 8 96 10 3 2 35 6 70 9
35 3 71 8 79 10 8 2 40 7 70 10 55 6 308 57 365 74 74 22 142 55 188 92 52 41
138 146 175 214 40 73 114 229 144 305 16 41 38 93 48 115 39 86 186 560 248
800 12 44 33 123 46 175 98 371 335 1496 390 1850 8 52 24 144 35 204 29 154
28 174 -14 229 -32 42 -43 48 -122 73 -49 14 -115 35 -148 46 -392 130 -1207
311 -1595 354 -14 2 -99 11 -190 20 -165 17 -229 33 -135 35 28 0 77 2 110 5
93 7 552 7 630 0 79 -7 255 -25 300 -31 186 -25 413 -65 570 -101 123 -28 338
-82 415 -104 167 -48 227 -45 264 13 9 13 50 181 90 373 41 192 86 401 100
464 14 63 60 279 101 480 42 201 87 415 100 475 88 398 124 568 185 865 38
184 87 418 110 520 67 305 126 580 184 865 31 149 72 342 91 430 19 88 76 354
126 590 49 237 110 522 135 635 125 574 165 776 159 817 -7 47 -35 89 -68 99
-12 4 -50 20 -85 35 -34 16 -66 29 -71 29 -4 0 -48 16 -97 35 -49 19 -95 35
-102 35 -8 0 -28 6 -45 14 -35 16 -208 73 -392 131 -66 20 -131 41 -145 46
-68 24 -477 133 -595 159 -44 10 -138 31 -210 48 -185 42 -714 133 -865 148
-14 1 -70 8 -125 14 -55 7 -113 14 -130 15 -16 2 -59 6 -95 10 -36 3 -85 8
-108 10 -63 5 -64 15 -4 16 29 1 64 3 80 4 66 5 427 17 527 18 113 0 408 -11
480 -18 22 -2 72 -7 110 -10 84 -7 89 -8 235 -30 231 -34 608 -124 865 -205
55 -17 116 -35 135 -40 32 -9 114 -37 375 -130 49 -18 118 -45 153 -61 80 -37
154 -39 203 -6 25 17 39 38 56 87 104 296 123 650 49 940 -32 126 -68 226
-118 330 -174 359 -548 716 -948 906 -41 19 -97 47 -125 61 -27 14 -90 41
-140 60 -49 19 -103 41 -120 48 -65 29 -423 145 -522 169 -32 8 -92 23 -133
34 -267 70 -765 166 -1050 202 -36 5 -101 13 -145 19 -44 6 -100 14 -125 16
-25 3 -67 7 -95 10 -27 3 -72 7 -100 10 -27 3 -72 7 -98 10 -76 8 -300 18
-682 30 -93 3 -195 7 -225 9 -30 2 -107 -2 -170 -10z m385 -228 c94 -4 231 -9
305 -11 235 -9 320 -14 525 -36 275 -29 292 -31 440 -54 50 -8 153 -24 230
-35 372 -57 1048 -218 1200 -285 17 -7 44 -17 60 -21 27 -6 126 -43 260 -96
67 -26 275 -132 350 -178 34 -20 68 -39 75 -42 30 -11 188 -134 272 -211 200
-183 358 -410 431 -617 45 -130 78 -322 80 -460 1 -158 -40 -420 -67 -420 -10
0 -53 15 -276 97 -52 19 -108 38 -125 42 -16 5 -64 20 -105 34 -160 54 -385
119 -530 153 -36 8 -101 23 -145 34 -128 31 -410 81 -545 96 -220 25 -327 29
-705 29 -426 0 -526 -5 -925 -46 -262 -27 -271 -28 -300 -34 -14 -3 -43 -7
-65 -10 -174 -21 -511 -84 -553 -103 -82 -37 -82 -159 0 -203 12 -6 55 -13 97
-15 304 -13 577 -28 701 -39 30 -2 89 -7 130 -10 105 -8 673 -67 770 -79 30
-4 66 -9 80 -10 332 -39 851 -144 1245 -251 33 -9 92 -25 130 -35 39 -10 102
-28 140 -40 194 -60 458 -144 520 -166 166 -59 214 -77 276 -100 l67 -25 -13
-57 c-8 -31 -48 -221 -89 -422 -42 -201 -92 -435 -110 -520 -59 -271 -105
-487 -166 -780 -33 -157 -78 -370 -101 -475 -56 -256 -98 -456 -169 -795 -32
-157 -77 -368 -100 -470 -45 -209 -72 -332 -164 -775 -36 -170 -85 -404 -111
-520 -49 -224 -109 -508 -181 -855 -24 -118 -61 -291 -82 -385 l-38 -170 -33
3 c-18 1 -61 11 -94 21 -222 68 -776 176 -1017 197 -19 2 -55 5 -80 9 -225 28
-707 24 -1070 -10 -36 -3 -85 -7 -110 -10 -25 -2 -88 -9 -140 -15 -52 -7 -108
-13 -125 -14 -16 -2 -50 -6 -75 -10 -25 -4 -56 -9 -70 -10 -161 -17 -735 -131
-767 -151 -63 -42 -61 -148 4 -190 19 -13 90 -16 455 -20 238 -3 462 -7 498
-10 36 -2 115 -6 177 -9 62 -4 131 -8 155 -11 24 -2 79 -7 123 -10 44 -4 96
-8 115 -10 19 -2 61 -6 93 -9 390 -38 970 -154 1472 -295 195 -55 349 -102
356 -110 8 -7 -20 -189 -60 -393 -16 -84 -35 -187 -41 -228 -17 -106 -145
-734 -176 -859 -14 -57 -38 -163 -54 -235 -16 -72 -34 -149 -39 -171 -6 -22
-20 -76 -30 -120 -10 -44 -31 -125 -46 -180 -15 -55 -35 -131 -45 -170 -23
-85 -56 -205 -63 -225 -3 -8 -22 -69 -42 -135 -21 -66 -43 -133 -50 -150 -8
-16 -17 -43 -21 -60 -4 -16 -31 -91 -60 -165 -102 -260 -215 -446 -299 -496
-53 -30 -331 -96 -464 -109 -20 -2 -79 -9 -131 -15 -52 -7 -115 -13 -140 -15
-25 -2 -74 -6 -110 -10 -275 -25 -910 -37 -1121 -21 -41 3 -112 8 -159 11 -47
3 -107 8 -135 12 -27 3 -61 7 -75 8 -93 9 -206 26 -266 39 -94 21 -225 56
-249 67 -187 80 -222 111 -299 264 -88 177 -135 293 -223 555 -43 127 -71 217
-127 407 -85 288 -251 951 -327 1303 -16 74 -40 185 -53 245 -98 454 -252
1228 -306 1540 -15 88 -39 221 -53 295 -25 131 -63 345 -113 640 -13 80 -35
208 -48 285 -14 77 -34 201 -46 275 -11 74 -30 187 -40 250 -44 265 -71 441
-105 665 -27 180 -46 305 -60 390 -8 44 -16 107 -20 140 l-6 61 63 18 c35 11
90 28 123 38 234 75 784 209 955 233 25 3 77 13 115 21 39 8 106 19 150 25 44
6 109 14 145 19 107 14 243 32 270 35 29 3 124 13 190 20 25 2 72 7 105 10 33
3 80 7 105 10 25 2 81 7 125 10 44 3 103 8 130 11 28 2 86 7 130 10 44 2 109
7 145 9 61 4 158 10 345 20 178 9 355 17 438 18 l89 2 35 39 c32 35 35 42 30
83 -9 80 -37 96 -252 147 -138 32 -645 123 -735 132 -14 1 -72 8 -130 14 -239
28 -371 35 -670 35 -245 0 -379 -5 -490 -20 -247 -31 -372 -51 -510 -80 -63
-14 -133 -30 -155 -36 -22 -5 -60 -15 -85 -20 -151 -35 -579 -170 -704 -223
-21 -9 -42 -14 -46 -11 -4 3 -13 42 -19 87 -11 78 -24 153 -101 578 -16 91
-32 183 -36 205 -3 22 -18 112 -34 200 -91 507 -113 632 -146 830 -9 50 -28
160 -44 245 -16 85 -34 191 -40 235 -7 44 -18 107 -25 140 -8 33 -19 94 -25
135 -6 41 -24 147 -40 235 -60 326 -82 452 -96 542 -8 51 -25 150 -38 220 -13
71 -32 174 -41 231 l-17 103 27 77 c47 132 129 285 229 427 130 186 259 316
457 464 86 64 171 125 190 136 240 138 409 209 774 325 72 23 99 30 295 82
196 52 781 167 1040 204 14 2 52 8 85 14 58 9 143 20 195 25 14 2 70 8 125 15
55 6 122 14 149 16 27 2 50 5 52 6 3 4 62 2 289 -6z"/>
</g>
</svg>
